<svg id="visual" viewBox="0 0 900 600" width="900" height="600" xmlns="http://www.w3.org/2000/svg" xmlns:xlink="http://www.w3.org/1999/xlink" version="1.1"><path d="M616 600L616.3 583.3C616.7 566.7 617.3 533.3 640 500C662.7 466.7 707.3 433.3 725.7 400C744 366.7 736 333.3 745.3 300C754.7 266.7 781.3 233.3 781.7 200C782 166.7 756 133.3 761.5 100C767 66.7 804 33.3 822.5 16.7L841 0L900 0L900 16.7C900 33.3 900 66.7 900 100C900 133.3 900 166.7 900 200C900 233.3 900 266.7 900 300C900 333.3 900 366.7 900 400C900 433.3 900 466.7 900 500C900 533.3 900 566.7 900 583.3L900 600Z" fill="#ff0000" stroke-linecap="round" stroke-linejoin="miter"></path></svg>