<svg id="visual" viewBox="0 0 900 600" width="900" height="600" xmlns="http://www.w3.org/2000/svg" xmlns:xlink="http://www.w3.org/1999/xlink" version="1.1"><path d="M821 600L801.3 583.3C781.7 566.7 742.3 533.3 736.7 500C731 466.7 759 433.3 761.3 400C763.7 366.7 740.3 333.3 732.5 300C724.7 266.7 732.3 233.3 715 200C697.7 166.7 655.3 133.3 632.8 100C610.3 66.7 607.7 33.3 606.3 16.7L605 0L900 0L900 16.7C900 33.3 900 66.7 900 100C900 133.3 900 166.7 900 200C900 233.3 900 266.7 900 300C900 333.3 900 366.7 900 400C900 433.3 900 466.7 900 500C900 533.3 900 566.7 900 583.3L900 600Z" fill="#ff0000" stroke-linecap="round" stroke-linejoin="miter"></path></svg>