<svg id="visual" viewBox="0 0 900 600" width="900" height="600" xmlns="http://www.w3.org/2000/svg" xmlns:xlink="http://www.w3.org/1999/xlink" version="1.1"><path d="M810 600L777.5 583.3C745 566.7 680 533.3 636 500C592 466.7 569 433.3 570.8 400C572.7 366.7 599.3 333.3 614.5 300C629.7 266.7 633.3 233.3 667.5 200C701.7 166.7 766.3 133.3 785.3 100C804.3 66.7 777.7 33.3 764.3 16.7L751 0L900 0L900 16.7C900 33.3 900 66.7 900 100C900 133.3 900 166.7 900 200C900 233.3 900 266.7 900 300C900 333.3 900 366.7 900 400C900 433.3 900 466.7 900 500C900 533.3 900 566.7 900 583.3L900 600Z" fill="#ff0000" stroke-linecap="round" stroke-linejoin="miter"></path></svg>