<svg id="visual" viewBox="0 0 900 600" width="900" height="600" xmlns="http://www.w3.org/2000/svg" xmlns:xlink="http://www.w3.org/1999/xlink" version="1.1"><path d="M813 600L770.8 583.3C728.7 566.7 644.3 533.3 607.7 500C571 466.7 582 433.3 587.8 400C593.7 366.7 594.3 333.3 627 300C659.7 266.7 724.3 233.3 724 200C723.7 166.7 658.3 133.3 663.7 100C669 66.7 745 33.3 783 16.7L821 0L900 0L900 16.7C900 33.3 900 66.7 900 100C900 133.3 900 166.7 900 200C900 233.3 900 266.7 900 300C900 333.3 900 366.7 900 400C900 433.3 900 466.7 900 500C900 533.3 900 566.7 900 583.3L900 600Z" fill="#ff0000" stroke-linecap="round" stroke-linejoin="miter"></path></svg>