<svg id="visual" viewBox="0 0 900 600" width="900" height="600" xmlns="http://www.w3.org/2000/svg" xmlns:xlink="http://www.w3.org/1999/xlink" version="1.1"><path d="M825 600L809.2 583.3C793.3 566.7 761.7 533.3 727 500C692.3 466.7 654.7 433.3 628.2 400C601.7 366.7 586.3 333.3 591.7 300C597 266.7 623 233.3 661.5 200C700 166.7 751 133.3 759.2 100C767.3 66.7 732.7 33.3 715.3 16.7L698 0L900 0L900 16.7C900 33.3 900 66.7 900 100C900 133.3 900 166.7 900 200C900 233.3 900 266.7 900 300C900 333.3 900 366.7 900 400C900 433.3 900 466.7 900 500C900 533.3 900 566.7 900 583.3L900 600Z" fill="#ff0000" stroke-linecap="round" stroke-linejoin="miter"></path></svg>