<svg id="visual" viewBox="0 0 900 600" width="900" height="600" xmlns="http://www.w3.org/2000/svg" xmlns:xlink="http://www.w3.org/1999/xlink" version="1.1"><g stroke-width="40" stroke-linejoin="bevel"><path d="M426 432L483 600L656 420Z" fill="#000000" stroke="#000000"></path><path d="M483 600L675 600L656 420Z" fill="#b70001" stroke="#000000"></path><path d="M900 363L669 239L656 420Z" fill="#690000" stroke="#000000"></path><path d="M656 420L669 239L426 432Z" fill="#ff0000" stroke="#000000"></path><path d="M438 161L228 390L426 432Z" fill="#910000" stroke="#000000"></path><path d="M426 432L226 600L483 600Z" fill="#b70001" stroke="#000000"></path><path d="M228 390L226 600L426 432Z" fill="#570000" stroke="#000000"></path><path d="M669 239L438 161L426 432Z" fill="#ff0000" stroke="#000000"></path><path d="M675 600L900 600L656 420Z" fill="#b70001" stroke="#000000"></path><path d="M900 600L900 363L656 420Z" fill="#ed0000" stroke="#000000"></path><path d="M438 161L196 236L228 390Z" fill="#a60000" stroke="#000000"></path><path d="M228 390L0 600L226 600Z" fill="#ed0000" stroke="#000000"></path><path d="M900 363L900 220L669 239Z" fill="#c90001" stroke="#000000"></path><path d="M672 0L456 0L438 161Z" fill="#a60000" stroke="#000000"></path><path d="M672 0L438 161L669 239Z" fill="#910000" stroke="#000000"></path><path d="M438 161L221 0L196 236Z" fill="#c90001" stroke="#000000"></path><path d="M900 220L672 0L669 239Z" fill="#ed0000" stroke="#000000"></path><path d="M0 171L0 377L196 236Z" fill="#c90001" stroke="#000000"></path><path d="M196 236L0 377L228 390Z" fill="#a60000" stroke="#000000"></path><path d="M0 377L0 600L228 390Z" fill="#690000" stroke="#000000"></path><path d="M456 0L221 0L438 161Z" fill="#910000" stroke="#000000"></path><path d="M900 220L900 0L672 0Z" fill="#910000" stroke="#000000"></path><path d="M221 0L0 171L196 236Z" fill="#db0000" stroke="#000000"></path><path d="M221 0L0 0L0 171Z" fill="#ed0000" stroke="#000000"></path></g></svg>