<svg id="visual" viewBox="0 0 900 600" width="900" height="600" xmlns="http://www.w3.org/2000/svg" xmlns:xlink="http://www.w3.org/1999/xlink" version="1.1"><rect x="0" y="0" width="900" height="600" fill="#f3f3f3"></rect><defs><linearGradient id="grad1_0" x1="33.3%" y1="0%" x2="100%" y2="100%"><stop offset="20%" stop-color="#f3f3f3" stop-opacity="1"></stop><stop offset="80%" stop-color="#f3f3f3" stop-opacity="1"></stop></linearGradient></defs><defs><linearGradient id="grad2_0" x1="0%" y1="0%" x2="66.7%" y2="100%"><stop offset="20%" stop-color="#f3f3f3" stop-opacity="1"></stop><stop offset="80%" stop-color="#f3f3f3" stop-opacity="1"></stop></linearGradient></defs><g transform="translate(900, 0)"><path d="M0 162.2C-21 160.6 -42.1 158.9 -62.1 149.9C-82.1 140.9 -101.1 124.7 -104.7 104.7C-108.2 84.7 -96.4 60.9 -103.5 42.9C-110.5 24.8 -136.4 12.4 -162.2 0L0 0Z" fill="#FF0022"></path></g><g transform="translate(0, 600)"><path d="M0 -162.2C22.9 -158.2 45.8 -154.2 57.8 -139.5C69.7 -124.8 70.7 -99.6 87 -87C103.2 -74.4 134.8 -74.5 149.9 -62.1C165 -49.7 163.6 -24.9 162.2 0L0 0Z" fill="#FF0022"></path></g></svg>