<svg id="visual" viewBox="0 0 900 600" width="900" height="600" xmlns="http://www.w3.org/2000/svg" xmlns:xlink="http://www.w3.org/1999/xlink" version="1.1"><rect x="0" y="0" width="900" height="600" fill="#ffffff"></rect><defs><linearGradient id="grad1_0" x1="33.3%" y1="0%" x2="100%" y2="100%"><stop offset="20%" stop-color="#ffffff" stop-opacity="1"></stop><stop offset="80%" stop-color="#ffffff" stop-opacity="1"></stop></linearGradient></defs><defs><linearGradient id="grad2_0" x1="0%" y1="0%" x2="66.7%" y2="100%"><stop offset="20%" stop-color="#ffffff" stop-opacity="1"></stop><stop offset="80%" stop-color="#ffffff" stop-opacity="1"></stop></linearGradient></defs><g transform="translate(900, 0)"><path d="M0 324.5C-32.9 303.1 -65.8 281.8 -112.5 271.6C-159.2 261.5 -219.8 262.6 -229.5 229.5C-239.1 196.3 -197.8 128.9 -205.1 85C-212.4 41 -268.5 20.5 -324.5 0L0 0Z" fill="#c20909"></path></g><g transform="translate(0, 600)"><path d="M0 -324.5C39.1 -299.2 78.1 -273.9 101.8 -245.8C125.5 -217.6 133.7 -186.6 169.7 -169.7C205.7 -152.8 269.4 -150.1 299.8 -124.2C330.2 -98.3 327.4 -49.1 324.5 0L0 0Z" fill="#c20909"></path></g></svg>