<svg id="visual" viewBox="0 0 900 600" width="900" height="600" xmlns="http://www.w3.org/2000/svg" xmlns:xlink="http://www.w3.org/1999/xlink" version="1.1"><rect x="0" y="0" width="900" height="600" fill="#f3f3f3"></rect><defs><linearGradient id="grad1_0" x1="33.3%" y1="0%" x2="100%" y2="100%"><stop offset="20%" stop-color="#f3f3f3" stop-opacity="1"></stop><stop offset="80%" stop-color="#f3f3f3" stop-opacity="1"></stop></linearGradient></defs><defs><linearGradient id="grad2_0" x1="0%" y1="0%" x2="66.7%" y2="100%"><stop offset="20%" stop-color="#f3f3f3" stop-opacity="1"></stop><stop offset="80%" stop-color="#f3f3f3" stop-opacity="1"></stop></linearGradient></defs><g transform="translate(900, 0)"><path d="M0 189.3C-21.7 178 -43.4 166.8 -65.4 158C-87.5 149.2 -109.9 142.9 -129.4 129.4C-148.9 115.9 -165.4 95.2 -174.9 72.4C-184.4 49.7 -186.8 24.8 -189.3 0L0 0Z" fill="#FF0022"></path></g><g transform="translate(0, 600)"><path d="M0 -189.3C21.6 -176.8 43.2 -164.2 63.9 -154.3C84.7 -144.4 104.6 -137 124.5 -124.5C144.3 -111.9 164.1 -94.1 174.9 -72.4C185.7 -50.8 187.5 -25.4 189.3 0L0 0Z" fill="#FF0022"></path></g></svg>